<svg id="Layer_1" data-name="Layer 1" xmlns="http://www.w3.org/2000/svg" viewBox="0 0 363.26 300.67"><defs><style>.cls-1{fill:#991c1f;}.cls-2{fill:#020202;}.cls-3{fill:#010101;}.cls-4{fill:#030202;}.cls-5{fill:#040404;}.cls-6{fill:#030303;}.cls-7{fill:#131212;}.cls-8{fill:#0c0c0b;}.cls-9{fill:#100f0f;}.cls-10{fill:#101010;}.cls-11{fill:#090909;}.cls-12{fill:#0c0c0c;}.cls-13{fill:#0e0e0e;}.cls-14{fill:#b4b2b2;}.cls-15{fill:#cbc9c9;}.cls-16{fill:#e7e6e6;}.cls-17{fill:#e3e2e2;}.cls-18{fill:#fefefe;}</style></defs><path class="cls-1" d="M246.84,129.29c9.72,1.5,19.06,3.81,27.82,7.93,27.7,13,41.46,35.61,44.53,65.51.27,2.59-.54,3.1-2.89,3.09-23.6-.06-47.2-.12-70.79,0-4.36,0-3.26-2.72-3.26-5q-.06-68,0-135.9c0-10.14,0-10.14-9.94-10.14-4.82,0-9.67.33-14.45-.1s-6.06.76-6,5.78c.24,42,.14,83.93.14,125.9,0,5.33-.26,10.68.08,16,.28,4.37-2.55,3.22-4.83,3.37-2.45.15-4.25.29-4.24-3.41q.19-86.43,0-172.87c0-3.33,1.19-3.7,4-3.69q75,.11,150-.05c5.06,0,3.71,2.62,3.16,5.24-10.05,48.58-39.89,78.59-86.65,92.72C264.77,126.37,255.77,127.81,246.84,129.29Z" transform="translate(-31.4 -25.77)"/><path class="cls-1" d="M394.52,115.88c0,28.46-.08,56.93.09,85.39,0,3.79-.95,4.68-4.64,4.61-12.46-.25-24.92-.21-37.37,0-3.4,0-4.68-.5-5.09-4.43-2.26-21.65-8.36-42-21.77-59.61-1.76-2.31-3.61-4.55-5.42-6.83,2.42-1.72,4.86-3.43,7.27-5.17,34.15-24.58,53.3-58.42,61.05-99.3.28-1.45.3-3.24,1.18-4.19.64-.7,2.59-.65,3.76-.29,1.7.51.9,2.26.9,3.44q.07,29.48,0,58.93Z" transform="translate(-31.4 -25.77)"/><path d="M144.45,218.11c0,10.82-.11,21.65.06,32.47.05,3.07-.49,4.5-4,4.22-4.29-.33-8.63-.11-13-.06-1.64,0-2.94-.07-2.88-2.28.66-23.45-2.12-47.05,1.54-70.31,5-31.64,26.91-48.83,59.08-47.79,2,.07,4,.4,6,.36,2.68-.06,3.7.86,3.68,3.75q-.18,32,0,63.94c0,2.84-.79,3.67-3.63,3.65q-20.43-.21-40.87,0c-2.49,0-3.63-.52-3.48-3.24.23-4.32.32-8.65.21-13-.07-2.7,1.05-3.35,3.54-3.29,7,.16,14,0,20.93.17,2.71.07,3.78-.58,3.71-3.53-.19-8.32-.27-16.66,0-25,.13-3.67-1.53-3.62-4.16-3.28-14.63,1.92-24.84,12.79-26.15,28.23-.49,5.8-.54,11.64-.64,17.46s0,11.66,0,17.49Z" transform="translate(-31.4 -25.77)"/><path d="M62.11,205.71c-9,0-17.93-.09-26.9.06-2.7,0-3.86-.55-3.68-3.52a96.09,96.09,0,0,0,0-12.47c-.22-3.22,1-3.86,4-3.82,11.12.15,22.25-.09,33.37.09,3.29,0,4.16-.75,3.87-4.15-1.24-14.42-11.87-24.67-28.56-27.13-1.15-.17-2.31-.3-3.46-.43-2.92-.32-7.46.36-8.39-1.17-1.5-2.45-.69-6.36-.7-9.66-.05-9.55,0-9.55,9.17-8.78,31.83,2.66,51.29,23.19,52.51,55.43.19,5,1.91,11.2-1,14.51s-9,.82-13.79,1C73.07,205.87,67.58,205.71,62.11,205.71Z" transform="translate(-31.4 -25.77)"/><path d="M99.38,159.8c0-13.47.1-27-.08-40.41,0-3.32.57-4.89,4.26-4.47,5,.56,11.84-2.15,14.72,1.12,2.5,2.84.8,9.48.81,14.44,0,23.62-.06,47.23.09,70.85,0,3.39-.66,4.83-4.3,4.44-5-.55-11.85,2.13-14.72-1.09-2.5-2.81-.75-9.48-.77-14.44C99.35,180.09,99.38,170,99.38,159.8Z" transform="translate(-31.4 -25.77)"/><path class="cls-2" d="M373.35,289.07c5.09,0,9.56,0,14,0s7.16,2.18,7.13,7c-.09,14.09,1.65,11.77-11.26,11.94-7.31.09-14.62.1-21.93,0-6.08-.1-7.64-1.75-7.68-7.77s.1-12-.05-18c-.07-2.89,1.16-3.84,3.85-3.78s4.13.78,4.07,3.71c-.09,5,0,10,0,15,0,1.72.15,2.8,2.34,2.76,6.81-.12,13.63,0,20.44-.06.9,0,2.21.33,2.18-1.21s-1.31-1.2-2.22-1.2c-4.65,0-9.31-.16-14,0-4.22.16-5.5-1.84-5.36-5.78.3-8.65,5.49-13.59,14-13.24,2.81.11,4.33,1.07,4.38,4.08s-1.14,4.28-4.16,4.14C377.21,286.58,375.06,286.12,373.35,289.07Z" transform="translate(-31.4 -25.77)"/><path class="cls-3" d="M53.76,297c0-1.83,0-3.67,0-5.49.07-2.71-.85-5.75,3.84-5.84,5.07-.1,4,3.24,4.07,6.07.06,2,0,4,0,6,0,1.05.11,2.08,1.47,2.11s1.36-1.13,1.37-2.1c0-2.33.1-4.66,0-7-.15-3,.13-5.06,4.1-5.08,4.32,0,3.81,2.61,3.78,5.29,0,2.33,0,4.66,0,7,0,1,0,2,1.53,1.95s1.45-1,1.45-2c0-3,.07-6,0-9s1.68-3.15,3.92-3.14,4.06.26,4,3.08c0,4.49.07,9-.14,13.47-.17,3.49-2.19,5.47-5.77,5.56-4.14.1-8.29.23-12.43.14-2.21-.05-3.42.43-4.43,2.72-3,6.7-8.83,9.4-15.92,7.87-5.41-1.17-9-6.29-9.15-13.24,0-1.66.11-3.33,0-5-.27-3.26,1.57-3.89,4.3-3.9,2.91,0,3.72,1.44,3.61,4.07a23.7,23.7,0,0,0,.32,6c.59,2.67,2.32,4.47,5.28,4.33s4.5-1.91,4.57-4.84,0-6,0-9Z" transform="translate(-31.4 -25.77)"/><path class="cls-3" d="M193.07,308c-4.49,0-9,0-13.46,0s-6.79-2.17-6.77-6.74c0-6.33.08-12.66,0-19-.06-2.84,1.14-3.82,3.86-3.8s4.13.84,4.11,3.69c0,4.83-.05,9.66,0,14.49,0,1.32-.71,3.17,1.8,3.26,2.75.09,2.14-1.87,2.2-3.44,0-.83,0-1.66,0-2.5.07-6.84,1.38-8.17,8.13-8.18h15c3.84,0,6,2,6,5.73,0,15.4,2.26,17-14.9,16.54-2,0-4,0-6,0Z" transform="translate(-31.4 -25.77)"/><path class="cls-2" d="M320,298c0-2.5,0-5,0-7.48,0-3,.57-5,4.4-4.93,3.66.06,4.05,1.94,4,4.75-.08,2.49,0,5,0,7.48,0,1.07.18,1.91,1.54,2,1.62.11,2-.76,1.89-2.12a4.17,4.17,0,0,1,0-.5c.94-11.76,1.5-12.22,13-11.52,3.58.22,5.46,1.94,5.8,5.47a4,4,0,0,1,0,.49c-.09,15.71,2,16.67-15.09,16.34-4-.08-8-1-9.32,5.05-.74,3.43-4.62,5-8.24,5.55-2.36.38-4.52.09-4.83-2.78-.26-2.31-.38-4.85,3.06-5.12,3.25-.25,4-2.34,3.85-5.21C319.94,303,320,300.53,320,298Z" transform="translate(-31.4 -25.77)"/><path class="cls-2" d="M270.53,295.54v1c0,10.46-1,11.62-11.21,11.4-4.48-.09-8.09-.16-9.72,5.41-1,3.44-4.76,4.84-8.4,5.3-2.15.27-4.16,0-4.42-2.67-.22-2.3-.56-4.92,2.88-5.25,3.74-.36,4.37-2.77,4.29-6-.12-5.15.08-10.3-.07-15.44-.09-2.94,1.22-3.69,3.9-3.64,2.49.05,4.27.39,4,3.49-.14,1.82.21,3.69-.09,5.47-.77,4.49,1.1,5.29,5.33,5.41,4.64.14,5.74-1.47,5.18-5.58a31.22,31.22,0,0,1,0-5.47c.12-2.89,2-3.31,4.44-3.32s3.78.9,3.85,3.38C270.56,291.23,270.52,293.39,270.53,295.54Z" transform="translate(-31.4 -25.77)"/><path class="cls-2" d="M227.09,308.35c-3.74-.79-8.31.59-9.52-3.61-1.56-5.41-2.38-11.55.48-16.52S226.57,286,231,286c3.46,0,4.39,3.26,4.53,6.18.27,5.81.51,11.67-.57,17.42-1.41,7.48-8.4,10.18-15.39,9-2.21-.38-2.47-2.39-2.41-4.34.06-2.14.92-3.45,3.27-3.48S225.07,311.2,227.09,308.35Z" transform="translate(-31.4 -25.77)"/><path class="cls-4" d="M102,291.36c0-3,.09-6,0-9-.11-2.69.85-4,3.7-3.95s4.35,1,4.29,4.05c-.1,4.32.29,8.67-.12,13-.37,4,1.19,5,4.71,4.44a9,9,0,0,1,2.49,0c2.92.42,4.37-.5,4-3.74-.25-2,0-4-.06-6-.1-2.57.08-4.51,3.58-4.5,3.22,0,4.55,1.09,4.41,4.34-.16,3.65,0,7.31-.06,11-.09,4.27-2,7-6.59,7-4.81,0-9.62,0-14.42-.09-3.85-.09-5.73-2.3-5.82-6C102,298.34,102,294.85,102,291.36Z" transform="translate(-31.4 -25.77)"/><path class="cls-2" d="M170.12,298.13c0,2.33,0,4.66,0,7-.2,7.76-5.25,13.31-12.34,13.61-8.39.36-12.85-3.55-13.81-12.17q-.33-3-.43-6c-.09-2.83,1.12-4.2,4.17-4.2s4.36,1.07,4.16,4.09c-.07,1.16,0,2.33,0,3.49.1,3.67,1,6.9,5.48,6.75,4.15-.15,4.83-3.31,4.81-6.76,0-4.49,0-9,0-13.48-.05-2.76.11-4.78,3.85-4.85,4-.08,4.33,2,4.18,5C170,293.13,170.12,295.63,170.12,298.13Z" transform="translate(-31.4 -25.77)"/><path class="cls-5" d="M301.43,296.72c0,1.5.08,3,0,4.48-.27,4.26-2.34,6.77-6.84,6.78-1.82,0-3.64,0-5.46,0-2.8.07-4.27-1-4.22-4.09s1.29-4.18,4.23-4.11c1.72,0,4.1,1,4.06-2.5,0-2.56-.31-4.15-3.4-3.72s-5-.75-4.9-4.37c.1-3.84,2.6-3.55,5.14-3.49,1.16,0,2.32,0,3.47,0,6.09,0,7.79,1.74,8,8,0,1,0,2,0,3Z" transform="translate(-31.4 -25.77)"/><path class="cls-6" d="M99.15,298.41c0,3,.2,6,0,9-.52,6.44-5.38,11.2-11.17,11.33-2.12,0-3.74-.53-3.8-2.87,0-2-.92-4.75,2.39-5.06,4.26-.4,4.94-3.06,4.83-6.62-.13-4.5.06-9-.06-13.49-.07-2.95,0-5.08,4.06-5.06,4.28,0,3.86,2.58,3.83,5.29,0,2.49,0,5,0,7.49Z" transform="translate(-31.4 -25.77)"/><path class="cls-6" d="M303.89,293.2c0-3.64.07-7.29,0-10.94-.08-3.19,1.71-3.82,4.43-3.83s3.77,1.31,3.74,4q-.1,10.94,0,21.88c0,2.73-1,3.83-3.84,3.81s-4.41-.82-4.33-3.94C304,300.5,303.89,296.85,303.89,293.2Z" transform="translate(-31.4 -25.77)"/><path class="cls-7" d="M123.23,318.69c1.63,2.1,2.59,4.35.39,6.56a3.63,3.63,0,0,1-5,.39c-2.75-2.09-1.76-4.55-.29-6.93.15-.15.29-.3.43-.46,1.13-.63,2.44-.5,3.63-.86C123.08,317.58,123.57,317.88,123.23,318.69Z" transform="translate(-31.4 -25.77)"/><path class="cls-8" d="M262.72,313.71c1.35-2.34,3.11-3.93,6-2.69a3.56,3.56,0,0,1,2.13,4c-.55,3.51-3.3,3.53-6,3.65a3.06,3.06,0,0,1-1.83-1A3,3,0,0,1,262.72,313.71Z" transform="translate(-31.4 -25.77)"/><path class="cls-7" d="M246.22,280.88a4,4,0,0,1-5.53,1.55,3.6,3.6,0,0,1-1.84-4.2c.56-2.88,2.77-3.32,5.18-3.45a1.23,1.23,0,0,1,1.34-.13C247.39,276.48,248.57,278.44,246.22,280.88Z" transform="translate(-31.4 -25.77)"/><path class="cls-9" d="M160.05,282.32c-.34,2.45-1.77,3.89-4.27,3.75s-3.76-1.71-3.62-4.3a3.53,3.53,0,0,1,3.87-3.59C158.38,278.23,160,279.66,160.05,282.32Z" transform="translate(-31.4 -25.77)"/><path class="cls-10" d="M123.23,318.69l-.71-1c-.71,0-1-.37-1.16-1-.13-1.45-.4-2.84.6-4.22a4,4,0,0,1,4.25-1.78,3.91,3.91,0,0,1,.83,7.35A18.16,18.16,0,0,1,123.23,318.69Z" transform="translate(-31.4 -25.77)"/><path class="cls-11" d="M245,274.8l-1,0a18.91,18.91,0,0,1-1-2.76,3.72,3.72,0,0,1,1.8-4.2,3.67,3.67,0,0,1,4.56.31c2,1.66,1.86,3.67.57,5.73S247,276,245,274.8Z" transform="translate(-31.4 -25.77)"/><path class="cls-12" d="M260,318.69c-1.44-.22-3,.13-4.24-1s-2-2.37-1.51-3.93a4,4,0,0,1,7.85-.09,3.12,3.12,0,0,1,.13,1.91,6.4,6.4,0,0,1-1.68,2.74Z" transform="translate(-31.4 -25.77)"/><path class="cls-13" d="M118.37,318.71a14,14,0,0,1-3.78-.8,3.47,3.47,0,0,1-1.84-4.17,3.73,3.73,0,0,1,3.89-3.11,3.32,3.32,0,0,1,3.62,2.7,24.29,24.29,0,0,1,.31,3.42c-.49,1-1.76,1.15-2.36,2Z" transform="translate(-31.4 -25.77)"/><path class="cls-9" d="M264.11,317.79l.75.92c1.68,2.32,2.57,4.68-.15,6.82a3.5,3.5,0,0,1-4.9-.28c-2.31-2.18-1.19-4.41.21-6.56l-.19.1c1-1.16,2.27-1.21,3.63-1Z" transform="translate(-31.4 -25.77)"/><path class="cls-11" d="M251,274.84c2.4.25,4.1,1.32,4.36,3.92a3.49,3.49,0,0,1-2,3.69,4,4,0,0,1-5.57-1.65C246.71,277.65,247.31,275.41,251,274.84Z" transform="translate(-31.4 -25.77)"/><path class="cls-14" d="M251,274.84a5,5,0,0,0-3.19,6l-1.59.08c1.34-2.36-.82-4.05-1.18-6.08,1.74.18,3.45.19,4.94-.94Z" transform="translate(-31.4 -25.77)"/><path class="cls-15" d="M118.21,318.78c-.41-2.07,1.08-1.92,2.36-2a.48.48,0,0,1,.79,0c.79-.13.89.54,1.16,1C121.33,319.09,119.66,318.49,118.21,318.78Z" transform="translate(-31.4 -25.77)"/><path class="cls-16" d="M261.86,315.69c.08-.66.17-1.32.26-2a1.11,1.11,0,0,1,.6,0c.47,1.36.93,2.72,1.39,4.08l-.34-.11C261.51,318.59,261.14,317.66,261.86,315.69Z" transform="translate(-31.4 -25.77)"/><path class="cls-17" d="M203.21,296.65c.15-1.25-.46-3.09,1.57-3,2.42.12,1.27,2.23,1.38,3.47s.62,3-1.63,2.69C202.54,299.53,203.47,297.77,203.21,296.65Z" transform="translate(-31.4 -25.77)"/><path class="cls-18" d="M192.73,296.75c.31-1.07-.75-3,1.33-3s1.25,1.89,1.26,3,.8,3-1.26,3S193,297.83,192.73,296.75Z" transform="translate(-31.4 -25.77)"/><path class="cls-17" d="M342.88,296.84c-.31,1.12.7,3-1.46,3s-1.57-1.76-1.53-3-.71-3.4,1.74-3.2C343.68,293.85,342.5,295.75,342.88,296.84Z" transform="translate(-31.4 -25.77)"/><path class="cls-18" d="M224.77,296.8c.32-1.21-.51-3,1.08-3,2.46,0,1.21,2.15,1.37,3.35.13.95.6,2.69-1.21,2.55C223.92,299.55,225.4,297.59,224.77,296.8Z" transform="translate(-31.4 -25.77)"/><path class="cls-15" d="M261.86,315.69c0,1.24.54,2,1.91,2-.91,1.81-2.66.62-3.94,1.11C259.33,317,260.86,316.51,261.86,315.69Z" transform="translate(-31.4 -25.77)"/></svg>