<svg id="Layer_1" data-name="Layer 1" xmlns="http://www.w3.org/2000/svg" viewBox="0 0 609.54 229.07"><defs><style>.cls-1{fill:#991c1f;}.cls-2{fill:#010101;}.cls-3{fill:#020202;}.cls-4{fill:#030202;}.cls-5{fill:#030303;}.cls-6{fill:#131212;}.cls-7{fill:#0c0c0b;}.cls-8{fill:#100f0f;}.cls-9{fill:#101010;}.cls-10{fill:#090909;}.cls-11{fill:#0c0c0c;}.cls-12{fill:#0e0e0e;}.cls-13{fill:#b4b2b2;}.cls-14{fill:#cbc9c9;}.cls-15{fill:#e7e6e6;}.cls-16{fill:#e3e2e2;}.cls-17{fill:#fefefe;}</style></defs><path class="cls-1" d="M471.84,121.29c9.72,1.5,19.06,3.81,27.82,7.93,27.7,13,41.46,35.61,44.53,65.51.27,2.59-.54,3.1-2.89,3.09-23.6-.06-47.2-.12-70.79,0-4.36,0-3.26-2.72-3.26-5q-.06-68,0-135.9c0-10.14,0-10.14-9.94-10.14-4.82,0-9.67.33-14.45-.1s-6.06.76-6,5.78c.24,42,.14,83.93.14,125.9,0,5.33-.26,10.68.08,16,.28,4.37-2.55,3.22-4.83,3.37-2.45.15-4.25.29-4.24-3.41q.19-86.43,0-172.87c0-3.33,1.19-3.7,4-3.69q75,.11,150.05-.05c5.06,0,3.71,2.62,3.16,5.24-10,48.58-39.89,78.59-86.65,92.72C489.77,118.37,480.77,119.81,471.84,121.29Z" transform="translate(-10.13 -17.77)"/><path class="cls-1" d="M619.52,107.88c0,28.46-.08,56.93.09,85.39,0,3.79-1,4.68-4.64,4.61-12.46-.25-24.92-.21-37.37,0-3.4,0-4.68-.5-5.09-4.43-2.26-21.65-8.36-42-21.77-59.61-1.76-2.31-3.61-4.55-5.42-6.83,2.42-1.72,4.86-3.43,7.27-5.17,34.15-24.58,53.3-58.42,61-99.3.28-1.45.3-3.24,1.18-4.19.64-.7,2.59-.65,3.76-.29,1.7.51.9,2.26.9,3.44q.07,29.48,0,58.93Z" transform="translate(-10.13 -17.77)"/><path d="M369.45,210.11c0,10.82-.11,21.65.06,32.47.05,3.07-.49,4.5-4,4.22-4.29-.33-8.63-.11-12.95-.06-1.64,0-2.94-.07-2.88-2.28.66-23.45-2.12-47.05,1.54-70.31,5-31.64,26.91-48.83,59.08-47.79,2,.07,4,.4,6,.36,2.68-.06,3.7.86,3.68,3.75q-.18,32,0,63.94c0,2.84-.79,3.67-3.63,3.65q-20.43-.21-40.87,0c-2.49,0-3.63-.52-3.48-3.24.23-4.32.32-8.65.21-13-.07-2.7,1.05-3.35,3.54-3.29,7,.16,14,0,20.93.17,2.71.07,3.78-.58,3.71-3.53-.19-8.32-.27-16.66,0-25,.13-3.67-1.53-3.62-4.16-3.28-14.63,1.92-24.84,12.79-26.15,28.23-.49,5.8-.54,11.64-.64,17.46s0,11.66,0,17.49Z" transform="translate(-10.13 -17.77)"/><path d="M287.11,197.71c-9,0-17.93-.09-26.9.06-2.7,0-3.86-.55-3.68-3.52a96.09,96.09,0,0,0,0-12.47c-.22-3.22,1-3.86,4-3.82,11.12.15,22.25-.09,33.37.09,3.29,0,4.16-.75,3.87-4.15-1.24-14.42-11.87-24.67-28.56-27.13-1.15-.17-2.31-.3-3.46-.43-2.92-.32-7.46.36-8.39-1.17-1.5-2.45-.69-6.36-.7-9.66-.05-9.55,0-9.55,9.17-8.78,31.83,2.66,51.29,23.19,52.51,55.43.19,5,1.91,11.2-1,14.51s-9.05.82-13.79,1C298.07,197.87,292.58,197.71,287.11,197.71Z" transform="translate(-10.13 -17.77)"/><path d="M324.38,151.8c0-13.47.1-27-.08-40.41,0-3.32.57-4.89,4.26-4.47,5,.56,11.84-2.15,14.72,1.12,2.5,2.84.8,9.48.81,14.44,0,23.62-.06,47.23.09,70.85,0,3.39-.66,4.83-4.3,4.44-5.05-.55-11.85,2.13-14.72-1.09-2.5-2.81-.75-9.48-.77-14.44C324.35,172.09,324.38,162,324.38,151.8Z" transform="translate(-10.13 -17.77)"/><path class="cls-2" d="M28.45,172.89c0-1.83,0-3.67,0-5.5.07-2.7-.85-5.74,3.84-5.83,5.08-.1,4,3.24,4.07,6.06.06,2,0,4,0,6,0,1,.1,2.08,1.46,2.11s1.36-1.13,1.37-2.1c0-2.33.1-4.66,0-7-.15-3,.13-5.06,4.11-5.08,4.31,0,3.8,2.61,3.77,5.29,0,2.33,0,4.66,0,7,0,1,.05,2,1.53,1.95s1.45-1,1.45-2c0-3,.08-6,0-9s1.69-3.14,3.92-3.13,4.07.26,4.05,3.07c0,4.5.07,9-.14,13.48-.17,3.49-2.19,5.47-5.76,5.56-4.15.1-8.3.23-12.44.14-2.2,0-3.41.43-4.43,2.72-3,6.7-8.83,9.4-15.92,7.87-5.41-1.17-9-6.3-9.15-13.24,0-1.66.11-3.33,0-5-.27-3.27,1.57-3.89,4.3-3.9,2.91,0,3.72,1.44,3.61,4.07a23.24,23.24,0,0,0,.33,6c.58,2.67,2.31,4.47,5.27,4.33s4.5-1.91,4.57-4.84,0-6,0-9Z" transform="translate(-10.13 -17.77)"/><path class="cls-2" d="M167.76,183.89c-4.49,0-9,0-13.46,0s-6.79-2.17-6.77-6.74c0-6.33.08-12.66,0-19-.05-2.84,1.14-3.82,3.87-3.8s4.12.84,4.1,3.69c0,4.83-.05,9.66,0,14.49,0,1.32-.71,3.17,1.8,3.26,2.75.09,2.14-1.87,2.2-3.44,0-.83,0-1.66,0-2.5.07-6.84,1.39-8.17,8.14-8.18h15c3.84,0,6,2,6,5.74,0,15.4,2.26,17-14.9,16.54-2-.05-4,0-6,0Z" transform="translate(-10.13 -17.77)"/><path class="cls-3" d="M245.22,171.46v1c0,10.46-1,11.62-11.2,11.4-4.49-.09-8.09-.16-9.73,5.41-1,3.44-4.76,4.84-8.4,5.3-2.15.27-4.16,0-4.42-2.67-.22-2.3-.56-4.92,2.88-5.25,3.74-.36,4.37-2.77,4.3-6-.13-5.14.07-10.29-.08-15.43-.08-2.94,1.23-3.7,3.9-3.64,2.5,0,4.28.38,4,3.49-.14,1.82.21,3.69-.09,5.47-.77,4.49,1.1,5.29,5.33,5.41,4.64.14,5.74-1.47,5.18-5.58a31.22,31.22,0,0,1,0-5.47c.12-2.89,2-3.31,4.44-3.32s3.79.9,3.85,3.38C245.26,167.15,245.21,169.31,245.22,171.46Z" transform="translate(-10.13 -17.77)"/><path class="cls-3" d="M201.78,184.27c-3.74-.79-8.31.59-9.52-3.61-1.56-5.41-2.37-11.55.48-16.52s8.52-2.21,12.92-2.24c3.47,0,4.39,3.26,4.53,6.18.28,5.81.51,11.66-.57,17.42-1.41,7.48-8.4,10.18-15.39,9-2.21-.38-2.47-2.39-2.41-4.34.06-2.14.92-3.45,3.27-3.48S199.76,187.12,201.78,184.27Z" transform="translate(-10.13 -17.77)"/><path class="cls-4" d="M76.73,167.28c0-3,.09-6,0-9-.11-2.69.85-4,3.7-4s4.35,1,4.29,4.05c-.1,4.32.29,8.67-.11,13-.38,4,1.18,5,4.71,4.44a9,9,0,0,1,2.48,0c2.92.42,4.37-.5,3.95-3.75-.25-2,0-4-.06-6-.1-2.57.09-4.51,3.58-4.5,3.22,0,4.55,1.09,4.41,4.34-.15,3.65,0,7.31,0,11-.1,4.27-2,7-6.6,7-4.81,0-9.62,0-14.42-.09-3.85-.09-5.73-2.3-5.82-6C76.66,174.26,76.73,170.77,76.73,167.28Z" transform="translate(-10.13 -17.77)"/><path class="cls-3" d="M144.82,174.05c0,2.33.05,4.66,0,7-.2,7.76-5.25,13.31-12.35,13.61-8.39.36-12.84-3.55-13.81-12.17q-.33-3-.43-6c-.09-2.83,1.12-4.2,4.17-4.2s4.36,1.07,4.16,4.09c-.07,1.16,0,2.33,0,3.49.1,3.67,1,6.9,5.48,6.75,4.15-.15,4.83-3.31,4.81-6.76,0-4.49,0-9,0-13.48-.05-2.76.12-4.78,3.85-4.85,4-.08,4.33,2,4.18,5C144.72,169.05,144.82,171.55,144.82,174.05Z" transform="translate(-10.13 -17.77)"/><path class="cls-5" d="M73.84,174.33c0,3,.2,6,0,9-.52,6.44-5.37,11.2-11.17,11.33-2.12,0-3.74-.53-3.79-2.87-.05-2-.93-4.75,2.39-5.06,4.26-.4,4.93-3.06,4.83-6.63-.13-4.49,0-9-.07-13.48-.07-3,0-5.08,4.07-5.06,4.27,0,3.85,2.58,3.83,5.29,0,2.49,0,5,0,7.49Z" transform="translate(-10.13 -17.77)"/><path class="cls-6" d="M97.92,194.6c1.63,2.11,2.59,4.36.39,6.57a3.62,3.62,0,0,1-5,.39c-2.76-2.09-1.76-4.55-.29-6.93l.42-.46c1.13-.63,2.44-.5,3.63-.86C97.77,193.5,98.26,193.8,97.92,194.6Z" transform="translate(-10.13 -17.77)"/><path class="cls-7" d="M237.41,189.63c1.35-2.34,3.11-3.94,6-2.69a3.55,3.55,0,0,1,2.13,4c-.55,3.51-3.3,3.53-6,3.65a3.06,3.06,0,0,1-1.83-1A3,3,0,0,1,237.41,189.63Z" transform="translate(-10.13 -17.77)"/><path class="cls-6" d="M220.91,156.8a4,4,0,0,1-5.53,1.55,3.61,3.61,0,0,1-1.84-4.2c.56-2.89,2.77-3.32,5.18-3.45a1.23,1.23,0,0,1,1.34-.13C222.08,152.4,223.26,154.36,220.91,156.8Z" transform="translate(-10.13 -17.77)"/><path class="cls-8" d="M134.74,158.24c-.34,2.45-1.76,3.89-4.27,3.75s-3.76-1.71-3.62-4.3a3.53,3.53,0,0,1,3.87-3.59C133.07,154.15,134.66,155.58,134.74,158.24Z" transform="translate(-10.13 -17.77)"/><path class="cls-9" d="M97.92,194.6l-.71-.95c-.71,0-1-.37-1.16-1-.13-1.45-.4-2.84.6-4.23a4,4,0,0,1,4.25-1.77,3.91,3.91,0,0,1,.83,7.35A17.53,17.53,0,0,1,97.92,194.6Z" transform="translate(-10.13 -17.77)"/><path class="cls-10" d="M219.73,150.72l-1,0a20.17,20.17,0,0,1-1-2.76,3.71,3.71,0,0,1,1.81-4.2,3.65,3.65,0,0,1,4.55.31c2,1.66,1.86,3.67.57,5.73S221.67,151.93,219.73,150.72Z" transform="translate(-10.13 -17.77)"/><path class="cls-11" d="M234.71,194.61c-1.44-.22-3,.13-4.24-1s-2-2.37-1.5-3.93a3.8,3.8,0,0,1,3.4-3.12,3.85,3.85,0,0,1,4.44,3,3.12,3.12,0,0,1,.13,1.91,6.47,6.47,0,0,1-1.67,2.74Z" transform="translate(-10.13 -17.77)"/><path class="cls-12" d="M93.07,194.63a14,14,0,0,1-3.79-.8,3.47,3.47,0,0,1-1.84-4.17,3.74,3.74,0,0,1,3.9-3.11,3.34,3.34,0,0,1,3.62,2.7,25.87,25.87,0,0,1,.3,3.42c-.49,1-1.75,1.15-2.36,2Z" transform="translate(-10.13 -17.77)"/><path class="cls-8" d="M238.81,193.71c.24.31.49.61.74.92,1.68,2.31,2.57,4.68-.15,6.82a3.5,3.5,0,0,1-4.9-.28c-2.31-2.18-1.19-4.41.21-6.56l-.19.1c1-1.16,2.27-1.21,3.63-1Z" transform="translate(-10.13 -17.77)"/><path class="cls-10" d="M225.7,150.76c2.39.25,4.1,1.32,4.35,3.92a3.49,3.49,0,0,1-2,3.69,4.05,4.05,0,0,1-5.57-1.65C221.4,153.57,222,151.33,225.7,150.76Z" transform="translate(-10.13 -17.77)"/><path class="cls-13" d="M225.7,150.76c-2.66,1.13-3.67,3.14-3.2,6l-1.59.08c1.35-2.36-.82-4.05-1.18-6.08,1.74.18,3.45.19,4.94-.94Z" transform="translate(-10.13 -17.77)"/><path class="cls-14" d="M92.9,194.7c-.41-2.07,1.09-1.92,2.36-2a.48.48,0,0,1,.79,0c.79-.13.89.54,1.16,1C96,195,94.35,194.41,92.9,194.7Z" transform="translate(-10.13 -17.77)"/><path class="cls-15" d="M236.55,191.61c.09-.66.18-1.32.26-2a1.11,1.11,0,0,1,.6,0l1.4,4.08-.34-.11C236.2,194.51,235.83,193.58,236.55,191.61Z" transform="translate(-10.13 -17.77)"/><path class="cls-16" d="M177.9,172.57c.15-1.25-.46-3.09,1.57-3,2.42.11,1.27,2.23,1.38,3.47s.62,3-1.63,2.69C177.23,175.45,178.16,173.69,177.9,172.57Z" transform="translate(-10.13 -17.77)"/><path class="cls-17" d="M167.42,172.67c.31-1.07-.75-3,1.33-3s1.25,1.89,1.26,3,.8,3-1.26,3S167.72,173.75,167.42,172.67Z" transform="translate(-10.13 -17.77)"/><path class="cls-17" d="M199.46,172.71c.32-1.2-.51-3,1.09-3,2.45,0,1.2,2.15,1.36,3.35.13.95.6,2.69-1.21,2.55C198.61,175.46,200.09,173.5,199.46,172.71Z" transform="translate(-10.13 -17.77)"/><path class="cls-14" d="M236.55,191.61c0,1.24.54,2,1.92,2-.92,1.81-2.67.61-3.95,1.11C234,192.9,235.55,192.43,236.55,191.61Z" transform="translate(-10.13 -17.77)"/></svg>