<?xml version="1.0" encoding="UTF-8"?> <svg xmlns="http://www.w3.org/2000/svg" width="1067.297" height="615.433" viewBox="0 0 1067.297 615.433"><g id="ILLUSTRATION" transform="translate(-69.973 -80.418)"><g id="SHAPE" transform="translate(101.278 80.418)"><path id="Path_321" data-name="Path 321" d="M216.764,695.442h861.723c135.047-81.495,88.232-160.858,50.8-188.91-51.172-38.359-30.229-15.475-74.25-51.637-91.185-74.9,56.024-239.547-63.829-288.722-77.989-32-162.861,68.943-256.266-5.326C634.652,81.1,541.357,68.938,464.144,171.66c-59.89,79.675-148.478,36.081-204.715,28.29-78.646-10.894-146.843,88.624-70.737,191.265C234.223,452.618-49.421,544.7,216.764,695.442Z" transform="translate(-132.583 -82.14)" fill="#f5f5f5"></path><path id="Path_322" data-name="Path 322" d="M453.647,97.48c-.79-7.138-2.872-12-7.814-14.682-14.655-7.948-51.429,4.946-66.72,24.839-21.324,27.741-1.875,70.4,18.839,73.122C422.052,183.929,457.724,134.329,453.647,97.48Z" transform="translate(-127.837 -80.418)" fill="#f5f5f5"></path></g><g id="CALENDAR" transform="translate(215.576 243.848)"><rect id="Rectangle_179" data-name="Rectangle 179" width="634.085" height="387.111" transform="translate(89.431 59.557)" fill="#fff" stroke="#212121" stroke-width="5"></rect><path id="Path_431" data-name="Path 431" d="M0,0H634.085V59.557H0Z" transform="translate(89.431)" fill="#3dc3c2" stroke="#212121" stroke-width="5"></path><path id="Path_361" data-name="Path 361" d="M1164.589,274.911l-89.431,446.668h89.431Z" transform="translate(-1075.158 -274.911)" fill="#28a8a7" stroke="#212121" stroke-width="5"></path><path id="Path_432" data-name="Path 432" d="M3081.178,545.112V865.458" transform="translate(-2896.313 -453.927)" fill="none" stroke="#212121" stroke-width="4"></path><path id="Path_433" data-name="Path 433" d="M3081.178,545.112V865.458" transform="translate(-2806.694 -453.927)" fill="none" stroke="#212121" stroke-width="4"></path><path id="Path_434" data-name="Path 434" d="M3081.178,545.112V865.458" transform="translate(-2717.076 -453.927)" fill="none" stroke="#212121" stroke-width="4"></path><path id="Path_435" data-name="Path 435" d="M3081.178,545.112V865.458" transform="translate(-2627.458 -453.927)" fill="none" stroke="#212121" stroke-width="4"></path><path id="Path_436" data-name="Path 436" d="M3081.178,545.112V865.458" transform="translate(-2537.839 -453.927)" fill="none" stroke="#212121" stroke-width="4"></path><path id="Path_437" data-name="Path 437" d="M3081.178,545.112V865.458" transform="translate(-2448.22 -453.927)" fill="none" stroke="#212121" stroke-width="4"></path><path id="Path_438" data-name="Path 438" d="M3077.5,553h574.119" transform="translate(-2959.164 -383.272)" fill="none" stroke="#212121" stroke-width="4"></path><path id="Path_439" data-name="Path 439" d="M3077.5,553h574.119" transform="translate(-2959.164 -303.611)" fill="none" stroke="#212121" stroke-width="4"></path><path id="Path_440" data-name="Path 440" d="M3077.5,553h574.119" transform="translate(-2959.164 -223.95)" fill="none" stroke="#212121" stroke-width="4"></path><path id="Path_444" data-name="Path 444" d="M3077.5,553h574.119" transform="translate(-2958.164 -141.95)" fill="none" stroke="#212121" stroke-width="4"></path><path id="Path_445" data-name="Path 445" d="M3077.5,553h574.119" transform="translate(-2959.164 -462.95)" fill="none" stroke="#212121" stroke-width="4"></path><rect id="Rectangle_276" data-name="Rectangle 276" width="61.737" height="49.788" transform="translate(466.887 184.664)" fill="#e6e6e6"></rect><rect id="Rectangle_277" data-name="Rectangle 277" width="61.737" height="49.788" transform="translate(287.65 264.325)" fill="#e6e6e6"></rect><rect id="Rectangle_278" data-name="Rectangle 278" width="61.737" height="49.788" transform="translate(198.032 105.003)" fill="#e6e6e6"></rect><path id="star_2" data-name="star 2" d="M1410.8,226.112l16.287-8.563-3.111,18.136,13.176,12.844-18.209,2.646-8.143,16.5-8.143-16.5-18.209-2.646,13.176-12.844-3.11-18.136Z" transform="matrix(0.809, 0.588, -0.588, 0.809, -594.352, -811.94)" fill="#ff6440"></path><path id="star1" d="M1410.8,226.112l16.287-8.563-3.111,18.136,13.176,12.844-18.209,2.646-8.143,16.5-8.143-16.5-18.209-2.646,13.176-12.844-3.11-18.136Z" transform="matrix(0.809, 0.588, -0.588, 0.809, -770.352, -645.94)" fill="#ff6440"></path></g><g id="LITTLE_PLANT" data-name="LITTLE PLANT" transform="translate(886.913 407.067)"><g id="Group_187" data-name="Group 187" transform="translate(3.72)"><path id="Path_408" data-name="Path 408" d="M1364.1,306.206c-5.806,10.629-27.287,52.885-15.546,107.173a153.653,153.653,0,0,0,24.7,56.145c12.9,18.332,41.721,11.945,45.741-10.11a161.174,161.174,0,0,0-12.015-96.488A164.851,164.851,0,0,0,1364.1,306.206Z" transform="translate(-1345.104 -306.206)" fill="#3dc3c2"></path></g><g id="Group_188" data-name="Group 188" transform="translate(25.971 27.238)"><path id="Path_409" data-name="Path 409" d="M1381.89,509.424l-2.24-.112a537.657,537.657,0,0,0-6.716-116.409c-.886-5.254-1.855-10.541-2.884-15.712a538.278,538.278,0,0,0-15.026-58.162l2.141-.682a540.679,540.679,0,0,1,15.083,58.4c1.034,5.2,2.01,10.5,2.9,15.779A539.8,539.8,0,0,1,1381.89,509.424Z" transform="translate(-1355.023 -318.348)" fill="#2f2f2f" stroke="#2f2f2f" stroke-width="2"></path></g><g id="Group_192" data-name="Group 192" transform="translate(0 179)"><path id="Path_413" data-name="Path 413" d="M1448.434,454.855a27.583,27.583,0,0,1-7.268,18.659l-.1.115c-18.57,20.165-45.27,20.071-46.465,20.048-1.512-.029-26.246-.889-44.069-20l-.106-.112a27.719,27.719,0,0,1-7.42-18.875V386a209.022,209.022,0,0,0,105.434,0Z" transform="translate(-1343 -386)" fill="#2f2f2f"></path></g></g><path id="FLOOR" d="M0,0H0Z" transform="translate(101.484 693.352)" fill="#401037" stroke="#401037" stroke-width="5"></path><g id="DETAIL" transform="translate(453.791 132.964)"><g id="Group_199" data-name="Group 199"><g id="Group_96" data-name="Group 96" transform="translate(3.029 12.727)"><rect id="Rectangle_96" data-name="Rectangle 96" width="7.976" height="2.844" transform="translate(0 27.913) rotate(-29.995)" fill="#691a5a"></rect><rect id="Rectangle_97" data-name="Rectangle 97" width="7.974" height="2.844" transform="translate(41.442 3.987) rotate(-29.995)" fill="#691a5a"></rect></g><g id="Group_97" data-name="Group 97" transform="translate(12.726 3.029)"><rect id="Rectangle_98" data-name="Rectangle 98" width="7.975" height="2.844" transform="matrix(0.5, -0.866, 0.866, 0.5, 0, 48.349)" fill="#691a5a"></rect><rect id="Rectangle_99" data-name="Rectangle 99" width="7.975" height="2.844" transform="translate(23.926 6.907) rotate(-60.005)" fill="#691a5a"></rect></g><g id="Group_92" data-name="Group 92" transform="translate(26.493)"><rect id="Rectangle_88" data-name="Rectangle 88" width="2.843" height="7.976" fill="#691a5a"></rect><rect id="Rectangle_89" data-name="Rectangle 89" width="2.843" height="7.975" transform="translate(0 47.854)" fill="#691a5a"></rect></g><g id="Group_93" data-name="Group 93" transform="translate(12.726 3.029)"><rect id="Rectangle_90" data-name="Rectangle 90" width="2.844" height="7.975" transform="translate(0 1.422) rotate(-29.999)" fill="#691a5a"></rect><rect id="Rectangle_91" data-name="Rectangle 91" width="2.844" height="7.975" transform="translate(23.926 42.864) rotate(-29.999)" fill="#691a5a"></rect></g><g id="Group_94" data-name="Group 94" transform="translate(3.029 12.726)"><rect id="Rectangle_92" data-name="Rectangle 92" width="2.844" height="7.976" transform="translate(0 2.463) rotate(-60.003)" fill="#691a5a"></rect><rect id="Rectangle_93" data-name="Rectangle 93" width="2.844" height="7.974" transform="translate(41.443 26.389) rotate(-59.998)" fill="#691a5a"></rect></g><g id="Group_95" data-name="Group 95" transform="translate(0 26.493)"><rect id="Rectangle_94" data-name="Rectangle 94" width="7.976" height="2.843" fill="#691a5a"></rect><rect id="Rectangle_95" data-name="Rectangle 95" width="7.975" height="2.843" transform="translate(47.854)" fill="#691a5a"></rect></g></g><path id="Path_300" data-name="Path 300" d="M660.263,217.792A18.093,18.093,0,1,1,678.355,199.7,18.113,18.113,0,0,1,660.263,217.792Zm0-32.9a14.8,14.8,0,1,0,14.8,14.8A14.819,14.819,0,0,0,660.263,184.9Z" transform="translate(-52.348 -10.296)" fill="#9e005d"></path><path id="Path_298" data-name="Path 298" d="M505.949,316.639h-3.02a25.7,25.7,0,0,0-25.668-25.668v-3.02a25.7,25.7,0,0,0,25.668-25.668h3.02a25.7,25.7,0,0,0,25.668,25.668v3.02A25.7,25.7,0,0,0,505.949,316.639Zm-19.5-27.178a28.822,28.822,0,0,1,17.986,17.986,28.82,28.82,0,0,1,17.986-17.986,28.827,28.827,0,0,1-17.986-17.986A28.829,28.829,0,0,1,486.453,289.461Z" transform="translate(-755.04 -30.186)" fill="#9e005d"></path><path id="Path_443" data-name="Path 443" d="M512.508,329.066H508.8a31.572,31.572,0,0,0-31.536-31.536v-3.71A31.572,31.572,0,0,0,508.8,262.283h3.71a31.572,31.572,0,0,0,31.536,31.536v3.71A31.572,31.572,0,0,0,512.508,329.066Zm-23.953-33.392a35.412,35.412,0,0,1,22.1,22.1,35.409,35.409,0,0,1,22.1-22.1,35.417,35.417,0,0,1-22.1-22.1A35.421,35.421,0,0,1,488.555,295.675Z" transform="translate(75.221 -42.235)" fill="#9e005d"></path></g><g id="BOOKS" transform="translate(114.957 460.695)"><rect id="Rectangle_42" data-name="Rectangle 42" width="70.635" height="230.405" transform="translate(141.269)" fill="#9e005d"></rect><rect id="Rectangle_43" data-name="Rectangle 43" width="23.545" height="178.804" transform="translate(164.815 23.546)" fill="#fff"></rect><rect id="Rectangle_44" data-name="Rectangle 44" width="70.635" height="230.405" transform="translate(70.635)" fill="#ff6440"></rect><rect id="Rectangle_45" data-name="Rectangle 45" width="23.545" height="178.804" transform="translate(94.18 23.546)" fill="#fff"></rect><rect id="Rectangle_46" data-name="Rectangle 46" width="70.635" height="230.405" fill="#3dc3c2"></rect><rect id="Rectangle_47" data-name="Rectangle 47" width="23.545" height="178.804" transform="translate(23.545 23.546)" fill="#fff"></rect></g></g></svg> 